<?xml version="1.0" encoding="utf-8" ?><svg xmlns="http://www.w3.org/2000/svg" xmlns:xlink="http://www.w3.org/1999/xlink" width="1024" height="1024" viewBox="0 0 1024 1024"><clipPath id="cl_3"><rect x="-0.00012207031" width="1024" height="1023.9999"/></clipPath><g clip-path="url(#cl_3)"><path fill="#464E57" transform="matrix(2.6056 0 0 2.19742 -854.636 -450.472)" d="M0 0L1024 0L1024 1024L0 1024L0 0Z"/><path fill="#1A1D2F" transform="matrix(2.6056 0 0 2.19742 -854.636 -450.472)" d="M524.838 449.655C538.221 436.73 548.477 426.004 557.43 409.268C563.451 397.895 568.081 385.839 571.22 373.36C572.03 370.148 573.042 361.65 574.825 359.889C578.525 373.15 583.886 370.301 592.911 363.141C594.611 367.748 586.555 391.53 584.617 396.748C575.573 421.088 561.007 441.399 542.696 459.635C553.499 461.785 562.806 462.494 573.79 463.039C571.39 469.308 567.233 476.636 572.22 482.406C557.1 482.653 538.425 479.022 523.878 475.256C518.724 478.397 513.718 482.915 509.058 486.828C483.196 508.398 462.263 535.265 447.672 565.617C456.046 568.34 464.279 570.849 472.973 572.404C479.431 573.559 485.87 574.089 492.347 575.054C490.229 581.82 489.289 586.655 490.86 593.788C469.805 592.528 459.04 589.612 439.013 583.563C435.044 593.555 431.59 603.744 428.664 614.089C426.223 622.666 424.828 641.618 411.455 637.412C400.795 634.058 407.007 619.465 408.653 612.294C411.853 598.359 417.975 585.306 422.217 571.866C419.778 567.126 405.693 539.259 406.34 536.406C413.426 536.56 418.138 531.504 423.293 527.084C426.299 531.975 429.525 542.679 433.438 549.637C455.425 510.426 473.429 490.143 508.431 462.575C502.561 447.965 495.214 432.022 488.495 417.844C496.132 419.357 500.922 413.102 506.093 408.25C507.71 411.052 511.063 419.932 512.605 423.457C516.493 432.349 520.282 441.037 524.838 449.655Z"/><path fill="#111314" transform="matrix(2.6056 0 0 2.19742 -854.636 -450.472)" d="M492.347 575.054C502.994 550.512 514.652 536.887 540.234 526.811C546.011 524.535 552.146 522.708 558.336 522.047C569.928 520.808 637.76 520.715 645.923 524.014C646.776 524.359 647.358 524.816 648.042 525.416C650.427 531.942 643.92 549.916 641.073 556.157C633.187 573.443 619.878 583.45 602.239 589.751C594.247 592.616 585.941 594.516 577.498 595.41C570.488 596.177 563.163 596.188 556.097 596.17C537.388 596.121 518.661 596.458 499.958 596.37C497.276 596.357 494.802 595.673 492.395 594.534C491.881 594.291 491.369 594.043 490.86 593.788C489.289 586.655 490.229 581.82 492.347 575.054Z"/><path fill="#F6BB24" transform="matrix(2.6056 0 0 2.19742 -854.636 -450.472)" d="M406.34 536.406C404.139 535.127 403.086 534.049 401.899 531.7C397.35 522.279 392.716 512.788 388.335 503.283C382.919 491.532 376.275 479.837 371.331 467.937C369.325 463.187 367.752 458.264 366.633 453.229C362.155 433.369 364.398 410.206 375.508 392.771C379.813 386.015 394.362 369.604 402.251 368.215C403.923 367.921 405.607 368.26 406.92 369.38C410.373 372.326 443.739 442.344 446.187 449.924C448.632 457.495 449.627 465.855 449.558 473.791C449.352 497.674 439.752 510.994 423.293 527.084C418.138 531.504 413.426 536.56 406.34 536.406Z"/><path fill="#5E67E7" transform="matrix(2.6056 0 0 2.19742 -854.636 -450.472)" d="M573.79 463.039C581.247 446.115 592.66 434.845 610.013 428.087C615.42 425.981 620.981 424.73 626.743 424.098C633.563 423.349 685.581 422.034 688.915 423.894C690.235 424.631 690.826 426.09 691.079 427.519C692.638 436.323 685.578 452.018 680.245 459.031C669.775 472.799 653.271 479.611 636.551 481.829C627.216 483.067 580.425 484.287 572.22 482.406C567.233 476.636 571.39 469.308 573.79 463.039Z"/><path fill="#5E67E7" transform="matrix(2.6056 0 0 2.19742 -854.636 -450.472)" d="M488.495 417.844C482.878 411.793 479.108 400.164 475.56 392.622C470.161 381.146 463.229 369.644 459.987 357.31C455.859 341.607 457.062 323.792 465.511 309.66C469.024 303.785 481.187 289.718 488.015 288.794C489.393 288.607 490.058 288.788 491.054 289.721C495.931 294.289 518.694 345.505 521.169 353.705C522.579 358.374 523.058 363.365 523.127 368.226C523.361 384.722 517.516 396.612 506.093 408.25C500.922 413.102 496.132 419.357 488.495 417.844Z"/><path fill="#F2F2F1" transform="matrix(2.6056 0 0 2.19742 -854.636 -450.472)" d="M574.825 359.889C573.7 354.103 572.041 348.453 571.103 342.666C565.744 309.582 574.961 278.114 599.182 254.577C607.447 248.005 619.287 227.692 624.471 249.138C627.348 261.037 630.621 270.149 630.855 282.533C631.552 319.318 618.753 339.699 592.911 363.141C583.886 370.301 578.525 373.15 574.825 359.889Z"/></g></svg>